<?xml version="1.0" encoding="UTF-8" standalone="no"?>
<!-- Created with Inkscape (http://www.inkscape.org/) -->

<svg
   xmlns:osb="http://www.openswatchbook.org/uri/2009/osb"
   xmlns:dc="http://purl.org/dc/elements/1.1/"
   xmlns:cc="http://creativecommons.org/ns#"
   xmlns:rdf="http://www.w3.org/1999/02/22-rdf-syntax-ns#"
   xmlns:svg="http://www.w3.org/2000/svg"
   xmlns="http://www.w3.org/2000/svg"
   xmlns:xlink="http://www.w3.org/1999/xlink"
   xmlns:sodipodi="http://sodipodi.sourceforge.net/DTD/sodipodi-0.dtd"
   xmlns:inkscape="http://www.inkscape.org/namespaces/inkscape"
   width="48mm"
   height="48mm"
   viewBox="0 0 48 48"
   version="1.1"
   id="svg8"
   inkscape:version="0.92.4 5da689c313, 2019-01-14"
   sodipodi:docname="si-instagram.svg"
   inkscape:export-filename="/home/jpm/Downloads/si-patreon.svg.png"
   inkscape:export-xdpi="135.57001"
   inkscape:export-ydpi="135.57001">
  <defs
     id="defs2">
    <linearGradient
       osb:paint="gradient"
       id="linearGradient4595">
      <stop
         style="stop-color:#fa9b3e;stop-opacity:1"
         offset="0"
         id="stop4605" />
      <stop
         style="stop-color:#670087;stop-opacity:1;"
         offset="1"
         id="stop4603" />
    </linearGradient>
    <radialGradient
       inkscape:collect="always"
       xlink:href="#linearGradient4595"
       id="radialGradient4648"
       cx="36.563541"
       cy="211.32623"
       fx="36.563541"
       fy="211.32623"
       r="24"
       gradientUnits="userSpaceOnUse" />
  </defs>
  <sodipodi:namedview
     id="base"
     pagecolor="#ffffff"
     bordercolor="#666666"
     borderopacity="1.0"
     inkscape:pageopacity="0.0"
     inkscape:pageshadow="2"
     inkscape:zoom="2.3727152"
     inkscape:cx="-15.886953"
     inkscape:cy="74.72465"
     inkscape:document-units="mm"
     inkscape:current-layer="layer1"
     showgrid="false"
     fit-margin-top="0"
     fit-margin-left="0"
     fit-margin-right="0"
     fit-margin-bottom="0"
     inkscape:snap-bbox="true"
     inkscape:snap-object-midpoints="true"
     inkscape:snap-center="true"
     inkscape:snap-smooth-nodes="true"
     inkscape:window-width="1364"
     inkscape:window-height="746"
     inkscape:window-x="1"
     inkscape:window-y="21"
     inkscape:window-maximized="1" />
  <metadata
     id="metadata5">
    <rdf:RDF>
      <cc:Work
         rdf:about="">
        <dc:format>image/svg+xml</dc:format>
        <dc:type
           rdf:resource="http://purl.org/dc/dcmitype/StillImage" />
        <dc:title></dc:title>
      </cc:Work>
    </rdf:RDF>
  </metadata>
  <g
     inkscape:label="Layer 1"
     inkscape:groupmode="layer"
     id="layer1"
     transform="translate(-12.563541,-187.32623)">
    <circle
       style="opacity:1;fill:url(#radialGradient4648);fill-opacity:1;stroke:#000000;stroke-width:2;stroke-linecap:round;stroke-linejoin:miter;stroke-miterlimit:4;stroke-dasharray:none;stroke-opacity:1;paint-order:normal"
       id="path4585"
       cx="36.563541"
       cy="211.32623"
       r="23" />
    <path
       id="path4563"
       style="fill:#ed4f50;fill-opacity:1;stroke:#000000;stroke-width:2;stroke-linecap:square;stroke-linejoin:miter;stroke-miterlimit:4;stroke-dasharray:none;stroke-opacity:1"
       d="m 22.063541,216.32623 v 9.5 h 19 v -19.5 h -9 m 9,0 v -9.5 h -19 v 19.5 h 9 m 10,-19.5 h 10 v 29 h -10 z"
       inkscape:connector-curvature="0" />
    <g
       id="g7303"
       transform="matrix(0.59479555,0,0,0.59479555,20.682501,195.38571)">
	<path
   id="path7301"
   d="m 48.1,26.3 c 0,4.3 0,7.2 -0.1,8.8 -0.2,3.9 -1.3,6.9 -3.5,9 -2.2,2.1 -5.1,3.3 -9,3.5 -1.6,0.1 -4.6,0.1 -8.8,0.1 -4.3,0 -7.2,0 -8.8,-0.1 C 14,47.4 11,46.3 8.9,44.1 6.8,42 5.6,39 5.4,35.1 5.3,33.5 5.3,30.5 5.3,26.3 c 0,-4.2 0,-7.2 0.1,-8.8 0.2,-3.9 1.3,-6.9 3.5,-9 2.1,-2.1 5.1,-3.3 9,-3.5 1.6,-0.1 4.6,-0.1 8.8,-0.1 4.3,0 7.2,0 8.8,0.1 3.9,0.2 6.9,1.3 9,3.5 2.1,2.2 3.3,5.1 3.5,9 0,1.6 0.1,4.5 0.1,8.8 z M 28.8,8.7 c -1.3,0 -2,0 -2.1,0 -0.1,0 -0.8,0 -2.1,0 -1.3,0 -2.3,0 -2.9,0 -0.7,0 -1.6,0 -2.7,0.1 -1.1,0 -2.1,0.1 -2.9,0.3 -0.8,0.1 -1.5,0.3 -2,0.5 -0.9,0.4 -1.7,0.9 -2.5,1.6 -0.7,0.7 -1.2,1.5 -1.6,2.5 -0.2,0.5 -0.4,1.2 -0.5,2 -0.1,0.8 -0.2,1.7 -0.3,2.9 0,1.1 -0.1,2 -0.1,2.7 0,0.7 0,1.7 0,2.9 0,1.3 0,2 0,2.1 0,0.1 0,0.8 0,2.1 0,1.3 0,2.3 0,2.9 0,0.7 0,1.6 0.1,2.7 0,1.1 0.1,2.1 0.3,2.9 0.2,0.8 0.3,1.5 0.5,2 0.4,0.9 0.9,1.7 1.6,2.5 0.7,0.7 1.5,1.2 2.5,1.6 0.5,0.2 1.2,0.4 2,0.5 0.8,0.1 1.7,0.2 2.9,0.3 1.2,0.1 2,0.1 2.7,0.1 0.7,0 1.7,0 2.9,0 1.3,0 2,0 2.1,0 0.1,0 0.8,0 2.1,0 1.3,0 2.3,0 2.9,0 0.7,0 1.6,0 2.7,-0.1 1.1,0 2.1,-0.1 2.9,-0.3 0.8,-0.1 1.5,-0.3 2,-0.5 0.9,-0.4 1.7,-0.9 2.5,-1.6 0.7,-0.7 1.2,-1.5 1.6,-2.5 0.2,-0.5 0.4,-1.2 0.5,-2 0.1,-0.8 0.2,-1.7 0.3,-2.9 0,-1.1 0.1,-2 0.1,-2.7 0,-0.7 0,-1.7 0,-2.9 0,-1.3 0,-2 0,-2.1 0,-0.1 0,-0.8 0,-2.1 0,-1.3 0,-2.3 0,-2.9 0,-0.7 0,-1.6 -0.1,-2.7 0,-1.1 -0.1,-2.1 -0.3,-2.9 -0.1,-0.8 -0.3,-1.5 -0.5,-2 C 43,12.8 42.5,12 41.8,11.2 41.1,10.5 40.3,10 39.3,9.6 38.8,9.4 38.1,9.2 37.3,9.1 36.5,9 35.6,8.9 34.4,8.8 c -1.1,0 -2,-0.1 -2.7,-0.1 -0.6,0 -1.6,0 -2.9,0 z m 5.6,9.8 c 2.1,2.1 3.2,4.7 3.2,7.8 0,3.1 -1.1,5.6 -3.2,7.8 -2.1,2.1 -4.7,3.2 -7.8,3.2 -3.1,0 -5.6,-1.1 -7.8,-3.2 -2.1,-2.1 -3.2,-4.7 -3.2,-7.8 0,-3.1 1.1,-5.6 3.2,-7.8 2.1,-2.1 4.7,-3.2 7.8,-3.2 3.1,0 5.7,1 7.8,3.2 z m -2.7,12.8 c 1.4,-1.4 2.1,-3.1 2.1,-5 0,-1.9 -0.7,-3.7 -2.1,-5.1 -1.4,-1.4 -3.1,-2.1 -5.1,-2.1 -2,0 -3.7,0.7 -5.1,2.1 -1.4,1.4 -2.1,3.1 -2.1,5.1 0,2 0.7,3.7 2.1,5 1.4,1.4 3.1,2.1 5.1,2.1 2,0 3.7,-0.7 5.1,-2.1 z M 39.9,13 c 0.5,0.5 0.8,1.1 0.8,1.8 0,0.7 -0.3,1.3 -0.8,1.8 -0.5,0.5 -1.1,0.8 -1.8,0.8 -0.7,0 -1.3,-0.3 -1.8,-0.8 -0.5,-0.5 -0.8,-1.1 -0.8,-1.8 0,-0.7 0.3,-1.3 0.8,-1.8 0.5,-0.5 1.1,-0.8 1.8,-0.8 0.7,0 1.3,0.3 1.8,0.8 z"
   inkscape:connector-curvature="0"
   style="fill:#fdb04c;fill-opacity:1" />
<rect
   id="rect7299"
   height="53.400002"
   width="53.799999"
   class="st0"
   y="0.1"
   x="-0.2"
   style="fill:none" />

	
</g>
    <path
       d="m 22.063541,216.32623 v 9.5 h 19 v -19.5 h -9 m 9,0 v -9.5 h -19 v 19.5 h 9 m 10,-19.5 h 10 v 29 h -10 z"
       style="fill:none;fill-opacity:1;stroke:#000000;stroke-width:2;stroke-linecap:square;stroke-linejoin:miter;stroke-miterlimit:4;stroke-dasharray:none;stroke-opacity:1"
       id="path4680"
       inkscape:connector-curvature="0" />
  </g>
  <style
     id="style4965"
     type="text/css">
	.st0{fill:#7289DA;}
</style>
  <style
     id="style5076"
     type="text/css">
	.st0{fill:#FF0000;}
	.st1{fill:#FFFFFF;}
	.st2{fill:#282828;}
</style>
  <style
     id="style7297"
     type="text/css">
	.st0{fill:none;}
</style>
</svg>
