<?xml version="1.0" encoding="UTF-8" standalone="no"?>
<!-- Created with Inkscape (http://www.inkscape.org/) -->

<svg
   xmlns:osb="http://www.openswatchbook.org/uri/2009/osb"
   xmlns:dc="http://purl.org/dc/elements/1.1/"
   xmlns:cc="http://creativecommons.org/ns#"
   xmlns:rdf="http://www.w3.org/1999/02/22-rdf-syntax-ns#"
   xmlns:svg="http://www.w3.org/2000/svg"
   xmlns="http://www.w3.org/2000/svg"
   xmlns:xlink="http://www.w3.org/1999/xlink"
   xmlns:sodipodi="http://sodipodi.sourceforge.net/DTD/sodipodi-0.dtd"
   xmlns:inkscape="http://www.inkscape.org/namespaces/inkscape"
   width="48mm"
   height="48mm"
   viewBox="0 0 48 48"
   version="1.1"
   id="svg8"
   inkscape:version="0.92.4 5da689c313, 2019-01-14"
   sodipodi:docname="si-kofi.svg"
   inkscape:export-filename="/home/jpm/si-kofi.svg.png"
   inkscape:export-xdpi="135.46666"
   inkscape:export-ydpi="135.46666">
  <defs
     id="defs2">
    <linearGradient
       osb:paint="gradient"
       id="linearGradient4595">
      <stop
         style="stop-color:#29abe0;stop-opacity:1"
         offset="0"
         id="stop4605" />
      <stop
         style="stop-color:#670087;stop-opacity:1;"
         offset="1"
         id="stop4603" />
    </linearGradient>
    <radialGradient
       inkscape:collect="always"
       xlink:href="#linearGradient4595"
       id="radialGradient4648"
       cx="36.563541"
       cy="211.32623"
       fx="36.563541"
       fy="211.32623"
       r="24"
       gradientUnits="userSpaceOnUse" />
  </defs>
  <sodipodi:namedview
     id="base"
     pagecolor="#ffffff"
     bordercolor="#666666"
     borderopacity="1.0"
     inkscape:pageopacity="0.0"
     inkscape:pageshadow="2"
     inkscape:zoom="2.3727152"
     inkscape:cx="60.273954"
     inkscape:cy="74.72465"
     inkscape:document-units="mm"
     inkscape:current-layer="layer1"
     showgrid="false"
     fit-margin-top="0"
     fit-margin-left="0"
     fit-margin-right="0"
     fit-margin-bottom="0"
     inkscape:snap-bbox="true"
     inkscape:snap-object-midpoints="true"
     inkscape:snap-center="true"
     inkscape:snap-smooth-nodes="true"
     inkscape:window-width="681"
     inkscape:window-height="746"
     inkscape:window-x="1"
     inkscape:window-y="21"
     inkscape:window-maximized="1" />
  <metadata
     id="metadata5">
    <rdf:RDF>
      <cc:Work
         rdf:about="">
        <dc:format>image/svg+xml</dc:format>
        <dc:type
           rdf:resource="http://purl.org/dc/dcmitype/StillImage" />
        <dc:title></dc:title>
      </cc:Work>
    </rdf:RDF>
  </metadata>
  <g
     inkscape:label="Layer 1"
     inkscape:groupmode="layer"
     id="layer1"
     transform="translate(-12.563541,-187.32623)">
    <circle
       style="opacity:1;fill:url(#radialGradient4648);fill-opacity:1;stroke:#000000;stroke-width:2;stroke-linecap:round;stroke-linejoin:miter;stroke-miterlimit:4;stroke-dasharray:none;stroke-opacity:1;paint-order:normal"
       id="path4585"
       cx="36.563541"
       cy="211.32623"
       r="23" />
    <path
       id="path4563"
       style="fill:#29abe0;fill-opacity:1;stroke:#000000;stroke-width:2;stroke-linecap:square;stroke-linejoin:miter;stroke-miterlimit:4;stroke-dasharray:none;stroke-opacity:1"
       d="m 22.063541,216.32623 v 9.5 h 19 v -19.5 h -9 m 9,0 v -9.5 h -19 v 19.5 h 9 m 10,-19.5 h 10 v 29 h -10 z"
       inkscape:connector-curvature="0" />
    <g
       id="Artboard"
       transform="matrix(0.98280094,0,0,0.98280094,20.034374,194.34343)"
       style="fill:none;fill-rule:evenodd;stroke:none;stroke-width:1">
      <g
         transform="translate(0,1)"
         id="Group-3"
         style="fill-rule:nonzero">
        <g
           id="Group-2">
          <g
             id="Group-4">
            <circle
               r="16.280001"
               cy="16.280001"
               cx="16.280001"
               id="Oval"
               style="fill:none" />
            <path
               style="fill:#ffffff;stroke-width:3.71452332"
               d="M 51.027344 62.923828 C 48.369365 62.923828 46.214844 65.078349 46.214844 67.736328 L 46.214844 112.13672 C 46.214844 117.45268 50.523887 121.76172 55.839844 121.76172 L 101.28906 121.76172 C 106.60502 121.76172 110.91406 117.45268 110.91406 112.13672 L 110.91406 105.85938 L 116.88477 105.85938 C 128.40267 105.85938 137.74023 96.523764 137.74023 85.005859 L 137.74023 83.779297 C 137.74023 72.261392 128.40267 62.923828 116.88477 62.923828 L 110.91406 62.923828 L 51.027344 62.923828 z M 110.91406 74.054688 L 116.35742 74.054688 C 122.06606 74.054688 126.69336 78.683932 126.69336 84.392578 C 126.69336 90.101221 122.06606 94.728516 116.35742 94.728516 L 110.91406 94.728516 L 110.91406 74.054688 z M 66.697266 76 C 72.257907 76 75.780676 78.174827 77.267578 82.525391 C 78.75448 78.174827 82.279204 76 87.839844 76 C 96.180806 76 99.2725 86.376138 94.900391 93.160156 C 91.985653 97.682835 86.107757 103.40421 77.267578 110.32227 C 68.427399 103.40421 62.549505 97.682835 59.634766 93.160156 C 55.262657 86.376138 58.356304 76 66.697266 76 z "
               transform="matrix(0.26921355,0,0,0.26921355,-7.6015729,-8.1400013)"
               id="Rectangle-2" />
          </g>
          <g
             transform="translate(4.84,8.8)"
             id="Group"
             style="fill:#ff5e5b" />
        </g>
      </g>
    </g>
    <path
       d="m 22.063541,216.32623 v 9.5 h 19 v -19.5 h -9 m 9,0 v -9.5 h -19 v 19.5 h 9 m 10,-19.5 h 10 v 29 h -10 z"
       style="fill:none;fill-opacity:1;stroke:#000000;stroke-width:2;stroke-linecap:square;stroke-linejoin:miter;stroke-miterlimit:4;stroke-dasharray:none;stroke-opacity:1"
       id="path4680"
       inkscape:connector-curvature="0" />
  </g>
  <style
     id="style4965"
     type="text/css">
	.st0{fill:#7289DA;}
</style>
  <style
     id="style5076"
     type="text/css">
	.st0{fill:#FF0000;}
	.st1{fill:#FFFFFF;}
	.st2{fill:#282828;}
</style>
</svg>
