<?xml version="1.0" encoding="UTF-8" standalone="no"?>
<!-- Created with Inkscape (http://www.inkscape.org/) -->

<svg
   xmlns:osb="http://www.openswatchbook.org/uri/2009/osb"
   xmlns:dc="http://purl.org/dc/elements/1.1/"
   xmlns:cc="http://creativecommons.org/ns#"
   xmlns:rdf="http://www.w3.org/1999/02/22-rdf-syntax-ns#"
   xmlns:svg="http://www.w3.org/2000/svg"
   xmlns="http://www.w3.org/2000/svg"
   xmlns:xlink="http://www.w3.org/1999/xlink"
   xmlns:sodipodi="http://sodipodi.sourceforge.net/DTD/sodipodi-0.dtd"
   xmlns:inkscape="http://www.inkscape.org/namespaces/inkscape"
   width="48mm"
   height="48mm"
   viewBox="0 0 48 48"
   version="1.1"
   id="svg8"
   inkscape:version="0.92.4 5da689c313, 2019-01-14"
   sodipodi:docname="si-mastodon.svg"
   inkscape:export-filename="/home/jpm/Downloads/si-mastodon.svg.png"
   inkscape:export-xdpi="135.46666"
   inkscape:export-ydpi="135.46666">
  <defs
     id="defs2">
    <linearGradient
       osb:paint="gradient"
       id="linearGradient4595">
      <stop
         style="stop-color:#2b90d9;stop-opacity:1"
         offset="0"
         id="stop4605" />
      <stop
         style="stop-color:#670087;stop-opacity:1;"
         offset="1"
         id="stop4603" />
    </linearGradient>
    <radialGradient
       inkscape:collect="always"
       xlink:href="#linearGradient4595"
       id="radialGradient4648"
       cx="36.563541"
       cy="211.32623"
       fx="36.563541"
       fy="211.32623"
       r="24"
       gradientUnits="userSpaceOnUse" />
  </defs>
  <sodipodi:namedview
     id="base"
     pagecolor="#ffffff"
     bordercolor="#666666"
     borderopacity="1.0"
     inkscape:pageopacity="0.0"
     inkscape:pageshadow="2"
     inkscape:zoom="4.7454304"
     inkscape:cx="108.68558"
     inkscape:cy="75.12367"
     inkscape:document-units="mm"
     inkscape:current-layer="layer1"
     showgrid="false"
     fit-margin-top="0"
     fit-margin-left="0"
     fit-margin-right="0"
     fit-margin-bottom="0"
     inkscape:snap-bbox="true"
     inkscape:snap-object-midpoints="true"
     inkscape:snap-center="true"
     inkscape:snap-smooth-nodes="true"
     inkscape:window-width="681"
     inkscape:window-height="746"
     inkscape:window-x="1"
     inkscape:window-y="21"
     inkscape:window-maximized="1" />
  <metadata
     id="metadata5">
    <rdf:RDF>
      <cc:Work
         rdf:about="">
        <dc:format>image/svg+xml</dc:format>
        <dc:type
           rdf:resource="http://purl.org/dc/dcmitype/StillImage" />
        <dc:title />
      </cc:Work>
    </rdf:RDF>
  </metadata>
  <g
     inkscape:label="Layer 1"
     inkscape:groupmode="layer"
     id="layer1"
     transform="translate(-12.563541,-187.32623)">
    <circle
       style="opacity:1;fill:url(#radialGradient4648);fill-opacity:1;stroke:#000000;stroke-width:2;stroke-linecap:round;stroke-linejoin:miter;stroke-miterlimit:4;stroke-dasharray:none;stroke-opacity:1;paint-order:normal"
       id="path4585"
       cx="36.563541"
       cy="211.32623"
       r="23" />
    <path
       id="path4563"
       style="fill:#2b90d9;fill-opacity:1;stroke:#000000;stroke-width:2;stroke-linecap:square;stroke-linejoin:miter;stroke-miterlimit:4;stroke-dasharray:none;stroke-opacity:1"
       d="m 22.063541,216.32623 v 9.5 h 19 v -19.5 h -9 m 9,0 v -9.5 h -19 v 19.5 h 9 m 10,-19.5 h 10 v 29 h -10 z"
       inkscape:connector-curvature="0" />
    <g
       id="g4746"
       transform="matrix(0.11089835,0,0,0.11089835,24.563541,198.46148)"
       style="fill:#ffffff;fill-opacity:0.76470588">
      <path
         id="path4732"
         d="m 211.80734,139.0875 c -3.18125,16.36625 -28.4925,34.2775 -57.5625,37.74875 -15.15875,1.80875 -30.08375,3.47125 -45.99875,2.74125 -26.0275,-1.1925 -46.565,-6.2125 -46.565,-6.2125 0,2.53375 0.15625,4.94625 0.46875,7.2025 3.38375,25.68625 25.47,27.225 46.39125,27.9425 21.11625,0.7225 39.91875,-5.20625 39.91875,-5.20625 l 0.8675,19.09 c 0,0 -14.77,7.93125 -41.08125,9.39 -14.50875,0.7975 -32.52375,-0.365 -53.50625,-5.91875 C 9.23234,213.82 1.40609,165.31125 0.20859,116.09125 -0.15641,101.4775 0.06859,87.6975 0.06859,76.1725 0.06859,25.8425 33.04484,11.09 33.04484,11.09 49.67234,3.45375 78.20359,0.2425 107.86484,0 h 0.72875 c 29.66125,0.2425 58.21125,3.45375 74.8375,11.09 0,0 32.975,14.7525 32.975,65.0825 0,0 0.41375,37.13375 -4.59875,62.915"
         inkscape:connector-curvature="0"
         style="fill:#ffffff;fill-opacity:0.76470588" />
    </g>
    <path
       d="m 22.063541,216.32623 v 9.5 h 19 v -19.5 h -9 m 9,0 v -9.5 h -19 v 19.5 h 9 m 10,-19.5 h 10 v 29 h -10 z"
       style="fill:none;fill-opacity:1;stroke:#000000;stroke-width:2;stroke-linecap:square;stroke-linejoin:miter;stroke-miterlimit:4;stroke-dasharray:none;stroke-opacity:1"
       id="path4680"
       inkscape:connector-curvature="0" />
  </g>
</svg>
